<?xml version="1.0" encoding="utf-8"?>
<!-- Generator: Adobe Illustrator 16.0.0, SVG Export Plug-In . SVG Version: 6.00 Build 0)  -->
<!DOCTYPE svg PUBLIC "-//W3C//DTD SVG 1.1 Tiny//EN" "http://www.w3.org/Graphics/SVG/1.1/DTD/svg11-tiny.dtd">
<svg version="1.1" baseProfile="tiny" id="Layer_1" xmlns="http://www.w3.org/2000/svg" xmlns:xlink="http://www.w3.org/1999/xlink"
	 x="0px" y="0px" width="89px" height="49px" viewBox="0 0 89 49" xml:space="preserve">
<rect x="-85.15" y="1.024" transform="matrix(-1 0.0032 -0.0032 -1 89.6333 69.3939)" fill="none" width="259.823" height="67.489"/>
<text transform="matrix(1 -0.0032 0.0032 1 33.1572 11.9775)" fill="#00AEEF" font-family="'ExpertSans-Bold'" font-size="14.4448">S</text>
<text transform="matrix(1 -0.0032 0.0032 1 41.0283 11.9521)" fill="#00AEEF" font-family="'ExpertSans-Bold'" font-size="14.4448">E</text>
<text transform="matrix(1 -0.0032 0.0032 1 48.6104 11.9277)" fill="#00AEEF" font-family="'ExpertSans-Bold'" font-size="14.4448">E</text>
<text transform="matrix(1 -0.0032 0.0032 1 56.1924 11.9033)" fill="#00AEEF" font-family="'ExpertSans-Bold'" font-size="14.4448"> </text>
<text transform="matrix(1 -0.0032 0.0032 1 11.0176 29.3828)" fill="#00AEEF" font-family="'ExpertSans-Bold'" font-size="14.4448">Y</text>
<text transform="matrix(1 -0.0032 0.0032 1 18.7051 29.3574)" fill="#00AEEF" font-family="'ExpertSans-Bold'" font-size="14.4448">O</text>
<text transform="matrix(1 -0.0032 0.0032 1 29.3486 29.3242)" fill="#00AEEF" font-family="'ExpertSans-Bold'" font-size="14.4448">U</text>
<text transform="matrix(1 -0.0032 0.0032 1 38.9551 29.293)" fill="#00AEEF" font-family="'ExpertSans-Bold'" font-size="14.4448">R</text>
<text transform="matrix(1 -0.0032 0.0032 1 47.8975 29.2637)" fill="#00AEEF" font-family="'ExpertSans-Bold'" font-size="14.4448">S</text>
<text transform="matrix(1 -0.0032 0.0032 1 55.7686 29.2383)" fill="#00AEEF" font-family="'ExpertSans-Bold'" font-size="14.4448">E</text>
<text transform="matrix(1 -0.0032 0.0032 1 63.3506 29.2148)" fill="#00AEEF" font-family="'ExpertSans-Bold'" font-size="14.4448">L</text>
<text transform="matrix(1 -0.0032 0.0032 1 70.876 29.1895)" fill="#00AEEF" font-family="'ExpertSans-Bold'" font-size="14.4448">F</text>
<text transform="matrix(1 -0.0032 0.0032 1 1.457 46.748)" fill="#00AEEF" font-family="'ExpertSans-Bold'" font-size="14.4448">W</text>
<text transform="matrix(1 -0.0032 0.0032 1 14.8438 46.7041)" fill="#00AEEF" font-family="'ExpertSans-Bold'" font-size="14.4448">O</text>
<text transform="matrix(1 -0.0032 0.0032 1 25.4863 46.6699)" fill="#00AEEF" font-family="'ExpertSans-Bold'" font-size="14.4448">R</text>
<text transform="matrix(1 -0.0032 0.0032 1 34.4297 46.6416)" fill="#00AEEF" font-family="'ExpertSans-Bold'" font-size="14.4448">K</text>
<text transform="matrix(1 -0.0032 0.0032 1 43.0703 46.6133)" fill="#00AEEF" font-family="'ExpertSans-Bold'" font-size="14.4448">I</text>
<text transform="matrix(1 -0.0032 0.0032 1 47.2598 46.6006)" fill="#00AEEF" font-family="'ExpertSans-Bold'" font-size="14.4448">N</text>
<text transform="matrix(1 -0.0032 0.0032 1 57.1133 46.5684)" fill="#00AEEF" font-family="'ExpertSans-Bold'" font-size="14.4448">G</text>
<text transform="matrix(1 -0.0032 0.0032 1 66.9385 46.5371)" fill="#00AEEF" font-family="'ExpertSans-Bold'" font-size="14.4448"> </text>
<text transform="matrix(1 -0.0032 0.0032 1 70.4795 46.5254)" fill="#00AEEF" font-family="'ExpertSans-Bold'" font-size="14.4448">I</text>
<text transform="matrix(1 -0.0032 0.0032 1 74.6689 46.5117)" fill="#00AEEF" font-family="'ExpertSans-Bold'" font-size="14.4448">N</text>
<text transform="matrix(1 -0.0032 0.0032 1 84.5225 46.4805)" fill="#00AEEF" font-family="'ExpertSans-Bold'" font-size="14.4448">:</text>
</svg>
